<svg xmlns="http://www.w3.org/2000/svg" width="1024" height="1024" viewBox="0 0 1024 1024">
<g>
<path d="M 537.67 828.13 C529.43,829.87 523.41,830.33 506.00,830.56 C494.17,830.71 483.38,830.64 482.00,830.40 C480.62,830.16 475.23,829.25 470.00,828.37 C439.54,823.26 401.74,804.93 375.00,782.32 C320.67,736.39 286.53,668.80 274.08,582.50 C266.21,528.00 266.81,457.13 275.55,409.16 C284.58,359.54 302.67,311.91 326.16,275.94 C347.32,243.53 377.86,213.32 404.69,198.25 C434.98,181.23 466.53,173.05 502.01,173.02 C550.11,172.96 588.48,186.14 614.52,211.64 C639.10,235.71 650.15,262.72 648.62,295.00 C647.86,310.98 647.28,313.06 643.19,314.44 C636.43,316.71 633.24,320.55 625.88,335.23 C618.36,350.24 613.50,358.44 605.79,369.13 C591.07,389.55 582.18,409.90 576.56,436.04 C566.79,481.54 568.31,531.14 580.63,569.27 C586.63,587.83 594.97,603.37 612.13,628.00 C619.18,638.12 622.24,643.71 627.71,656.50 C629.59,660.90 632.11,665.56 633.32,666.85 C635.74,669.45 642.12,673.00 644.38,673.00 C647.60,673.00 648.50,679.76 648.46,703.50 C648.41,728.85 647.43,735.16 640.93,752.03 C627.13,787.81 586.41,817.82 537.67,828.13 ZM 450.27 699.97 C461.66,702.27 474.04,697.45 483.08,687.17 C488.26,681.29 494.54,668.28 495.93,660.57 C501.75,628.28 484.82,583.06 462.80,572.06 C457.69,569.50 455.50,569.00 449.54,569.00 C437.40,569.00 430.12,573.87 424.81,585.56 C422.64,590.33 422.55,591.72 422.18,626.60 C421.93,650.32 422.19,665.23 422.93,670.10 C425.43,686.50 434.92,696.86 450.27,699.97 ZM 437.46 427.63 C443.57,430.48 453.29,430.80 460.36,428.39 C473.34,423.97 487.11,404.06 493.83,380.00 C496.14,371.73 496.48,368.68 496.44,356.50 C496.39,343.95 496.12,341.80 493.82,335.76 C488.12,320.80 478.93,310.06 468.25,305.91 C460.05,302.72 448.33,302.68 441.50,305.81 C434.69,308.92 428.72,315.05 425.33,322.38 L 422.50 328.50 L 422.50 369.00 C422.50,407.99 422.58,409.67 424.59,414.00 C427.68,420.64 431.79,424.99 437.46,427.63 Z" fill="rgb(58,37,36)"/>
<path d="M 647.44 309.00 C647.32,309.78 647.20,310.39 647.09,310.76 C646.20,313.78 646.35,314.13 649.11,315.56 C656.07,319.15 657.94,329.18 653.91,341.25 C650.77,350.67 642.18,367.80 632.48,384.00 C615.95,411.61 612.00,421.42 611.24,436.79 C610.82,445.27 611.05,447.78 612.51,451.02 C614.88,456.27 618.16,458.28 624.16,458.15 C641.45,457.76 668.64,428.75 685.46,392.75 C698.16,365.57 705.96,332.65 708.10,297.20 C709.17,279.48 708.80,240.93 707.35,219.34 C706.76,210.43 706.81,210.10 709.32,207.59 C712.76,204.15 715.12,204.32 721.97,208.48 C725.13,210.40 729.98,212.49 732.76,213.13 C737.32,214.19 738.63,214.04 746.48,211.59 C758.91,207.72 759.96,208.94 755.45,222.07 C751.49,233.58 742.53,266.78 738.60,284.50 C728.82,328.58 723.21,369.87 719.35,426.00 C717.19,457.39 716.88,537.32 718.82,563.50 C724.84,645.16 734.12,696.62 753.67,756.82 C758.81,772.66 759.15,774.28 757.70,775.73 C756.24,777.19 755.48,777.14 748.80,775.16 C737.85,771.91 731.45,772.25 723.00,776.50 C715.24,780.41 712.05,780.83 709.75,778.25 C707.61,775.86 707.56,774.65 708.42,740.00 C709.50,696.57 707.51,672.07 700.49,642.35 C695.13,619.69 685.50,595.18 674.87,577.18 C656.56,546.18 640.93,530.68 626.64,529.35 C616.67,528.43 610.78,535.52 610.78,548.43 C610.78,564.20 618.26,582.96 637.27,614.90 C650.00,636.27 656.01,650.73 656.00,659.96 C655.99,664.59 652.67,669.92 648.90,671.35 C646.54,672.23 646.02,672.92 646.49,674.49 C646.53,674.63 646.58,674.78 646.62,674.92 C646.04,673.56 645.31,673.00 644.38,673.00 C642.12,673.00 635.74,669.45 633.32,666.85 C632.11,665.56 629.59,660.90 627.71,656.50 C622.24,643.71 619.18,638.12 612.13,628.00 C594.97,603.37 586.63,587.83 580.63,569.27 C568.31,531.14 566.79,481.54 576.56,436.04 C582.18,409.90 591.07,389.55 605.79,369.13 C613.50,358.44 618.36,350.24 625.88,335.23 C633.24,320.55 636.43,316.71 643.19,314.44 C645.51,313.66 646.70,312.65 647.44,309.00 ZM 648.00 682.97 C649.24,694.18 649.19,711.00 647.92,723.77 C648.32,718.42 648.44,712.04 648.46,703.50 C648.48,694.31 648.35,687.67 648.00,682.97 ZM 624.63 779.01 C622.45,781.66 620.12,784.27 617.61,786.85 C608.94,795.77 597.52,804.01 584.63,810.92 C600.53,802.26 614.24,791.35 624.63,779.01 ZM 648.62 295.00 C648.95,287.98 648.69,281.22 647.82,274.67 C648.69,281.21 648.96,287.98 648.63,295.00 C648.59,295.92 648.54,296.85 648.48,297.77 C648.53,296.89 648.57,295.97 648.62,295.00 Z" fill="rgb(138,196,60)"/>
<path d="M 0.00 512.00 L 0.00 0.00 L 512.00 0.00 L 1024.00 0.00 L 1024.00 512.00 L 1024.00 1024.00 L 512.00 1024.00 L 0.00 1024.00 L 0.00 512.00 ZM 537.67 828.13 C568.53,821.60 599.24,805.74 617.61,786.85 C632.26,771.78 641.20,755.61 646.14,735.27 C649.66,720.76 649.86,685.78 646.49,674.49 C646.02,672.92 646.54,672.23 648.90,671.35 C652.67,669.92 655.99,664.59 656.00,659.96 C656.01,650.73 650.00,636.27 637.27,614.90 C618.26,582.96 610.78,564.20 610.78,548.43 C610.78,535.52 616.67,528.43 626.64,529.35 C640.93,530.68 656.56,546.18 674.87,577.18 C685.50,595.18 695.13,619.69 700.49,642.35 C707.51,672.07 709.50,696.57 708.42,740.00 C707.56,774.65 707.61,775.86 709.75,778.25 C712.05,780.83 715.24,780.41 723.00,776.50 C731.45,772.25 737.85,771.91 748.80,775.16 C755.48,777.14 756.24,777.19 757.70,775.73 C759.15,774.28 758.81,772.66 753.67,756.82 C734.12,696.62 724.84,645.16 718.82,563.50 C716.88,537.32 717.19,457.39 719.35,426.00 C723.21,369.87 728.82,328.58 738.60,284.50 C742.53,266.78 751.49,233.58 755.45,222.07 C759.96,208.94 758.91,207.72 746.48,211.59 C738.63,214.04 737.32,214.19 732.76,213.13 C729.98,212.49 725.13,210.40 721.97,208.48 C715.12,204.32 712.76,204.15 709.32,207.59 C706.81,210.10 706.76,210.43 707.35,219.34 C708.80,240.93 709.17,279.48 708.10,297.20 C705.96,332.65 698.16,365.57 685.46,392.75 C668.64,428.75 641.45,457.76 624.16,458.15 C618.16,458.28 614.88,456.27 612.51,451.02 C611.05,447.78 610.82,445.27 611.24,436.79 C612.00,421.42 615.95,411.61 632.48,384.00 C642.18,367.80 650.77,350.67 653.91,341.25 C657.94,329.18 656.07,319.15 649.11,315.56 C646.35,314.13 646.20,313.78 647.09,310.76 C647.62,308.97 648.31,301.88 648.63,295.00 C650.13,262.69 639.09,235.70 614.52,211.64 C588.48,186.14 550.11,172.96 502.01,173.02 C466.53,173.05 434.98,181.23 404.69,198.25 C377.86,213.32 347.32,243.53 326.16,275.94 C302.67,311.91 284.58,359.54 275.55,409.16 C266.81,457.13 266.21,528.00 274.08,582.50 C286.53,668.80 320.67,736.39 375.00,782.32 C401.74,804.93 439.54,823.26 470.00,828.37 C475.23,829.25 480.62,830.16 482.00,830.40 C483.38,830.64 494.17,830.71 506.00,830.56 C523.41,830.33 529.43,829.87 537.67,828.13 ZM 450.27 699.97 C434.92,696.86 425.43,686.50 422.93,670.10 C422.19,665.23 421.93,650.32 422.18,626.60 C422.55,591.72 422.64,590.33 424.81,585.56 C430.12,573.87 437.40,569.00 449.54,569.00 C455.50,569.00 457.69,569.50 462.80,572.06 C484.82,583.06 501.75,628.28 495.93,660.57 C494.54,668.28 488.26,681.29 483.08,687.17 C474.04,697.45 461.66,702.27 450.27,699.97 ZM 437.46 427.63 C431.79,424.99 427.68,420.64 424.59,414.00 C422.58,409.67 422.50,407.99 422.50,369.00 L 422.50 328.50 L 425.33 322.38 C428.72,315.05 434.69,308.92 441.50,305.81 C448.33,302.68 460.05,302.72 468.25,305.91 C478.93,310.06 488.12,320.80 493.82,335.76 C496.12,341.80 496.39,343.95 496.44,356.50 C496.48,368.68 496.14,371.73 493.83,380.00 C487.11,404.06 473.34,423.97 460.36,428.39 C453.29,430.80 443.57,430.48 437.46,427.63 Z" fill="rgb(251,252,248)"/>
</g>
</svg>